<svg width="839" height="1024" viewBox="0 0 839 1024" fill="none" xmlns="http://www.w3.org/2000/svg">
<g clip-path="url(#clip0_2_3)">
<rect width="839" height="1024" fill="white"/>
<path d="M1069.12 -2V1025.27H74C79.7455 1020.38 136.519 937.502 313.174 856.97C497.12 773.123 553.711 731.077 611.076 594.212C651.475 497.851 661.603 387.647 684.127 283.001C703.911 191 770.953 63.005 839.781 -2H1069.12Z" fill="url(#paint0_linear_2_3)"/>
<g opacity="0.31">
<path opacity="0.31" d="M1000.49 311.075C993.557 272.854 957.303 248.328 925.913 256.929C894.522 265.53 871.145 302.354 868.054 341.315C863.318 316.938 840.781 304.203 820.302 301.609C794.692 298.364 767.698 306.027 747.691 325.754C724.612 348.507 712.964 384.523 707.91 420.137C703.276 452.778 703.448 486.854 711.528 518.486C719.609 550.118 736.041 579.152 759.211 596.548C778.066 610.705 800.416 616.647 822.532 618.312C858.245 620.998 894.843 612.792 926.175 591.771C957.506 570.75 983.225 536.495 995.096 495.436C1002.64 469.339 1004.54 441.361 1005.44 413.715C1006.47 381.91 1006.26 350.093 1004.81 318.266C1004.55 312.574 1002.84 305.149 998.153 305.132" fill="url(#paint1_linear_2_3)"/>
</g>
<g opacity="0.31">
<path opacity="0.31" d="M1070.39 97.6358V220.907C1070.39 236.653 1070.05 252.594 1069.69 268.563C1069.16 293.735 1068.64 318.954 1069.55 343.624C1069.57 344.564 1069.62 345.473 1069.69 346.415V663.183C1054.68 684.262 1035.67 701.253 1014.48 711.917C970.493 734.046 918.307 729.155 876.771 700.893C853.769 685.383 835.541 663.773 824.132 638.485C805.305 596.326 813.185 555.632 825.926 513.252C841.345 462.004 875.295 417.83 918.352 402.494C905.998 393.211 900.275 373.901 902.183 356.385C904.091 338.869 912.56 323.205 923.121 311.075C929.183 304.057 936.383 297.841 944.649 296.295C949.034 295.503 953.557 296.283 957.423 298.496C961.29 300.709 964.253 304.214 965.792 308.395C960.455 258.502 970.878 206.342 994.451 164.984C1013.89 130.866 1039.42 113.157 1069.69 97.9954C1069.91 97.8567 1070.16 97.7468 1070.39 97.6358Z" fill="url(#paint2_linear_2_3)"/>
</g>
<g opacity="0.31">
<path opacity="0.31" d="M1070.39 471.444V1025.03H380.709C375.35 989.889 385.978 953.198 403.146 924.052C435.461 869.102 494.21 836.308 548.485 850.621C587.954 861.036 620.701 893.304 651.835 924.604C652.766 891.674 669.435 860.069 693.666 845.316C717.919 830.591 748.691 833.326 770.924 852.195C775.715 782.88 782.346 708.26 820.343 656.35C820.449 656.226 820.548 656.097 820.639 655.962C858.655 604.356 925.488 588.056 976.925 617.865C965.007 591.399 970.339 555.208 989.097 535.455C1007.86 515.703 1038.06 514.431 1057.88 532.554C1058.57 511.624 1062.8 490.962 1070.39 471.444Z" fill="url(#paint3_linear_2_3)"/>
</g>
<path opacity="0.174" d="M888.183 212.438L880.554 211.133C880.262 208.743 879.738 206.388 878.989 204.1L885.287 198.328C885.754 197.852 886.049 197.233 886.126 196.571C886.203 195.908 886.056 195.238 885.71 194.668L879.69 184.948C879.555 184.684 879.36 184.456 879.121 184.281C878.883 184.106 878.606 183.989 878.315 183.939C878.023 183.889 877.723 183.908 877.44 183.994C877.157 184.08 876.897 184.23 876.682 184.434L870.286 190.29C868.77 188.923 867.094 187.745 865.295 186.781L866.432 176.942C866.552 176.31 866.431 175.657 866.092 175.111C865.754 174.565 865.223 174.165 864.605 173.991L854.698 172.295C854.39 172.272 854.081 172.312 853.79 172.413C853.499 172.515 853.231 172.674 853.004 172.883C852.777 173.091 852.594 173.344 852.468 173.625C852.342 173.906 852.275 174.211 852.271 174.519L851.134 184.356C849.229 184.669 847.373 185.227 845.612 186.018L840.672 178.042C840.537 177.779 840.342 177.551 840.103 177.376C839.865 177.201 839.588 177.084 839.296 177.034C839.005 176.984 838.705 177.003 838.422 177.089C838.139 177.175 837.879 177.325 837.664 177.528L829.674 184.852C829.207 185.328 828.911 185.947 828.835 186.609C828.758 187.272 828.904 187.941 829.25 188.512L834.093 196.331C832.877 198.226 831.856 200.239 831.046 202.34L823.097 200.98C822.789 200.957 822.481 200.997 822.189 201.099C821.898 201.2 821.63 201.359 821.403 201.568C821.176 201.776 820.993 202.029 820.867 202.31C820.741 202.592 820.674 202.896 820.67 203.204L819.277 215.256C819.159 215.887 819.281 216.54 819.619 217.086C819.957 217.632 820.487 218.032 821.105 218.208L828.785 219.522C829.008 221.946 829.467 224.342 830.156 226.677L824.001 232.318C823.534 232.794 823.239 233.412 823.162 234.075C823.085 234.738 823.232 235.407 823.578 235.977L829.598 245.699C829.733 245.962 829.928 246.19 830.167 246.365C830.406 246.54 830.682 246.657 830.973 246.707C831.265 246.757 831.565 246.738 831.848 246.652C832.131 246.566 832.391 246.416 832.606 246.213L838.55 240.767C840.15 242.319 841.946 243.656 843.892 244.743L842.856 253.702C842.738 254.333 842.86 254.986 843.198 255.532C843.536 256.078 844.067 256.478 844.685 256.654L854.591 258.349C854.898 258.372 855.207 258.331 855.499 258.23C855.79 258.129 856.057 257.969 856.285 257.761C856.512 257.553 856.694 257.3 856.82 257.019C856.946 256.738 857.014 256.434 857.018 256.125L858.035 247.325C860.164 246.998 862.234 246.363 864.181 245.441L868.617 252.602C868.752 252.865 868.947 253.094 869.185 253.268C869.424 253.443 869.7 253.56 869.992 253.61C870.284 253.66 870.583 253.641 870.866 253.556C871.149 253.47 871.409 253.319 871.624 253.116L879.615 245.792C880.082 245.316 880.377 244.698 880.454 244.035C880.53 243.372 880.384 242.703 880.039 242.133L875.589 234.948C876.86 232.878 877.903 230.677 878.702 228.383L886.192 229.664C886.499 229.686 886.808 229.646 887.1 229.545C887.391 229.444 887.658 229.284 887.886 229.076C888.113 228.868 888.295 228.615 888.421 228.334C888.547 228.053 888.615 227.749 888.619 227.44L890.012 215.387C890.129 214.756 890.007 214.104 889.669 213.559C889.33 213.013 888.801 212.613 888.183 212.438ZM852.723 233.078C844.884 231.736 839.427 222.925 840.527 213.403C841.628 203.882 848.873 197.229 856.713 198.569C864.552 199.91 870.009 208.722 868.906 218.259C867.804 227.796 860.545 234.419 852.723 233.078Z" fill="url(#paint4_linear_2_3)"/>
<path d="M378.202 717.754C385.826 716.951 393.813 717.748 401.48 717.722C403.868 717.712 406.257 717.475 408.643 717.586C411.277 717.708 413.871 718.253 416.487 718.584C419.651 718.976 422.843 719.077 426.025 718.886C428.641 718.733 431.036 717.409 433.454 716.345C438.9 713.947 444.247 711.338 449.495 708.516C459.932 702.885 469.975 696.553 479.555 689.563C498.831 675.564 516.345 659.263 532.631 641.913C538.822 635.318 544.855 628.579 550.728 621.694C597.491 567.137 642.453 430.702 644.236 425.255C644.254 425.201 642.526 419.744 642.481 419.779C640.36 421.474 592.066 455.379 580.84 463.257C580.537 463.471 580.193 463.622 579.83 463.701C579.467 463.78 579.092 463.785 578.727 463.716C578.362 463.647 578.014 463.506 577.705 463.3C577.395 463.094 577.131 462.828 576.926 462.518C574.928 459.513 570.807 453.47 570.05 451.204C569.897 450.746 570.618 451.233 570.72 450.761C570.848 450.334 571.078 449.945 571.389 449.626C576.013 444.103 581.654 439.52 587.411 435.186C592.026 431.711 596.741 428.375 601.555 425.177C603.734 423.834 605.699 422.171 607.384 420.245C609.297 418.041 611.213 415.841 613.132 413.644C620.787 404.879 628.496 396.16 636.17 387.41C650.308 371.289 664.322 355.046 677.692 338.283C680.133 335.225 682.898 331.929 688.252 333.857C691.032 334.916 693.32 336.969 694.673 339.618C694.825 340.96 696.431 342.924 697.072 344.13C697.956 345.789 698.839 347.449 699.721 349.109L722.365 391.677C726.261 399.001 730.157 406.324 734.052 413.647L739.548 423.98C741.348 427.364 742.897 430.795 745.247 433.804C745.543 434.152 745.793 434.536 745.99 434.947C746.148 435.361 746.251 435.794 746.298 436.235C746.705 439.035 746.971 441.85 747.097 444.681C747.202 445.754 747.113 446.838 746.836 447.88C746.692 448.4 746.423 448.877 746.051 449.268C745.68 449.66 745.218 449.955 744.707 450.126C742.273 450.769 739.409 449.073 737.464 447.814L731.562 443.989L718.486 435.52L697.151 421.699C697.108 421.672 697.048 421.692 697.057 421.742C697.449 425.808 708.368 541.707 686.856 615.666C682.61 630.28 677.553 644.646 671.707 658.696C652.359 705.15 624.177 748.116 588.325 783.508C574.704 797.085 559.833 809.348 543.91 820.135C537.421 824.483 530.593 828.106 523.915 832.119C521.013 833.865 517.066 836.911 514.678 832.774C511.894 827.834 509.622 822.622 507.896 817.221C507.743 816.74 508.2 816.538 508.28 816.04C508.387 815.581 508.592 815.15 508.88 814.776C510.113 812.917 511.484 811.13 512.539 809.174C513.861 806.862 514.755 804.332 515.18 801.703C515.602 798.735 515.034 795.427 514.833 792.437C514.388 785.818 513.78 779.213 513.009 772.622C512.109 764.923 510.988 757.255 509.645 749.617C508.548 743.35 508.776 741.477 502.713 743.224C481.629 749.486 459.581 751.861 437.646 750.233C425.391 749.251 412.604 745.889 400.947 742.154C396.874 741 392.949 739.372 389.255 737.303C387.112 735.999 379.124 721.6 378.202 717.754Z" fill="#FF9100"/>
<path d="M740.427 438.423L689.625 405.514C689.584 405.482 689.53 405.507 689.534 405.544C689.924 409.623 700.836 525.515 679.334 599.486C675.088 614.096 670.029 628.458 664.181 642.504C644.828 688.944 616.666 731.933 580.812 767.321C567.176 780.887 552.301 793.149 536.382 803.945C529.898 808.303 523.05 811.917 516.379 815.942C513.636 817.578 510.036 820.879 508.019 817.414C506.491 814.807 508.217 806.027 508.224 802.835C508.216 794.719 507.96 786.612 507.457 778.514C507.01 771.138 506.354 763.779 505.488 756.439C504.574 748.723 503.453 741.052 502.125 733.424C501.972 732.565 501.845 731.78 501.729 731.081C500.973 726.726 500.425 725.519 495.185 727.029C495.148 727.029 495.095 727.058 495.058 727.062C436.166 743.982 377.139 725.071 377.795 716.393C377.809 716.056 377.899 715.727 378.059 715.43C379.281 712.884 390.79 712.192 393.761 711.406C399.505 709.895 405.219 708.125 410.834 706.144C464.42 687.196 506.834 647.946 543.194 605.503C589.969 550.941 634.923 414.516 636.709 409.056C636.726 409.036 636.683 408.985 636.631 409.028C634.218 410.944 601.876 436.696 575.094 452.746C574.35 453.189 573.474 453.357 572.619 453.221C571.764 453.084 570.984 452.652 570.415 452C569.845 451.348 569.523 450.516 569.504 449.651C569.485 448.785 569.77 447.94 570.309 447.263L670.176 322.1C672.315 319.412 674.697 316.552 678.855 317.195C679.491 317.291 680.116 317.452 680.72 317.674C683.514 318.728 685.813 320.79 687.162 323.454C703.655 354.459 732.655 408.973 745.733 433.574C746.113 434.301 746.242 435.133 746.1 435.941C745.958 436.749 745.552 437.487 744.947 438.041C744.341 438.594 743.569 438.932 742.752 439.001C741.935 439.07 741.117 438.867 740.427 438.423Z" fill="#FFB200"/>
<g style="mix-blend-mode:multiply" opacity="0.283">
<path d="M740.427 438.423L689.625 405.514C689.584 405.482 689.53 405.507 689.534 405.544C689.924 409.623 700.836 525.515 679.334 599.486C675.088 614.096 670.029 628.458 664.181 642.504C644.828 688.944 616.666 731.933 580.812 767.321C567.176 780.887 552.301 793.149 536.382 803.945C529.898 808.303 523.05 811.917 516.379 815.942C513.636 817.578 510.035 820.879 508.019 817.414C506.491 814.807 508.217 806.027 508.224 802.835C508.216 794.719 507.96 786.612 507.457 778.514C507.01 771.138 506.354 763.779 505.488 756.439C504.574 748.723 503.453 741.052 502.125 733.424C501.972 732.565 501.845 731.78 501.729 731.081C570.024 686.071 612.84 605.872 639.235 527.315C670.07 435.451 678.448 345.805 678.853 317.19C679.489 317.286 680.114 317.446 680.718 317.669C683.512 318.722 685.811 320.785 687.16 323.449C703.653 354.454 732.653 408.968 745.731 433.569C746.113 434.296 746.243 435.129 746.102 435.937C745.96 436.746 745.555 437.485 744.949 438.04C744.344 438.594 743.572 438.932 742.754 439.001C741.936 439.071 741.118 438.867 740.427 438.423Z" fill="#FFB200"/>
</g>
<path d="M555.25 354.206L503.362 360.104C499.819 360.507 497.273 363.706 497.676 367.25L502.211 407.151C502.614 410.695 505.813 413.241 509.357 412.838L561.244 406.94C564.788 406.537 567.334 403.338 566.931 399.794L562.395 359.893C561.992 356.349 558.793 353.803 555.25 354.206Z" fill="#0090C6"/>
<path d="M540.024 407.211L548.363 417.164C548.514 417.345 548.71 417.482 548.931 417.563C549.152 417.645 549.39 417.666 549.622 417.626C549.854 417.586 550.072 417.485 550.253 417.335C550.434 417.184 550.572 416.988 550.653 416.767C552.007 412.932 553.042 408.992 553.748 404.987" fill="#0090C6"/>
<g style="mix-blend-mode:multiply" opacity="0.283">
<g style="mix-blend-mode:multiply" opacity="0.283">
<path d="M630.617 556.86C627.888 567.657 635.361 578.247 636.674 589.294C637.946 599.992 633.474 613.189 628.231 622.388C609.018 656.157 576.685 684.673 541.736 701.319C537.795 703.196 533.722 704.903 530.236 707.531C520.578 714.816 517.206 727.576 514.45 739.357L508.554 764.571C508.267 765.797 507.908 766.67 506.684 766.667C505.949 763.401 505.892 759.813 505.491 756.439C504.577 748.723 503.457 741.052 502.128 733.424C501.975 732.565 501.848 731.78 501.732 731.081C500.976 726.726 500.428 725.519 495.188 727.029C495.151 727.029 495.098 727.058 495.061 727.062C506.325 691.183 524.01 657.648 547.255 628.087L550.255 624.761C558.712 603.777 567.157 582.8 575.589 561.831C579.866 551.193 584.158 540.517 590.036 530.668C596.177 520.34 603.213 511.312 615.634 509.284C621.736 508.292 628.676 508.77 633.085 513.086C634.545 514.579 635.728 516.321 636.578 518.23C638.434 522.179 639.426 526.479 639.488 530.842C639.549 535.205 638.679 539.531 636.934 543.531C634.932 548.028 631.829 552.097 630.617 556.86Z" fill="#494949"/>
</g>
</g>
<path d="M524.073 385.919C524.18 386.857 524.006 387.805 523.573 388.644C523.141 389.484 522.469 390.176 521.643 390.633C520.817 391.091 519.874 391.293 518.933 391.214C517.992 391.136 517.096 390.78 516.357 390.192C515.619 389.604 515.071 388.81 514.784 387.911C514.496 387.011 514.482 386.047 514.742 385.14C515.003 384.232 515.527 383.422 516.248 382.813C516.969 382.203 517.854 381.821 518.792 381.714C520.05 381.572 521.313 381.934 522.304 382.723C523.294 383.511 523.931 384.661 524.073 385.919Z" fill="#FEFEFE"/>
<path d="M532.465 389.739C535.101 389.739 537.238 387.601 537.238 384.965C537.238 382.329 535.101 380.192 532.465 380.192C529.828 380.192 527.691 382.329 527.691 384.965C527.691 387.601 529.828 389.739 532.465 389.739Z" fill="#FEFEFE"/>
<path d="M550.341 382.933C550.448 383.871 550.274 384.82 549.841 385.659C549.409 386.498 548.737 387.19 547.911 387.648C547.086 388.105 546.143 388.308 545.202 388.23C544.261 388.151 543.365 387.796 542.626 387.208C541.887 386.62 541.339 385.826 541.052 384.927C540.764 384.028 540.749 383.063 541.01 382.156C541.27 381.248 541.794 380.438 542.515 379.829C543.235 379.219 544.121 378.836 545.059 378.73C546.317 378.587 547.58 378.949 548.57 379.737C549.561 380.526 550.198 381.675 550.341 382.933Z" fill="#FEFEFE"/>
<path d="M725.586 605.282C755.479 601.885 777.08 575.962 773.832 547.382C770.583 518.802 743.717 498.387 713.823 501.785C683.929 505.182 662.329 531.105 665.577 559.685C668.825 588.265 695.692 608.68 725.586 605.282Z" fill="#F24B57"/>
<path d="M724.258 593.553C747.382 590.924 764.091 570.871 761.578 548.763C759.065 526.655 738.282 510.864 715.158 513.492C692.034 516.121 675.325 536.174 677.838 558.282C680.351 580.39 701.134 596.181 724.258 593.553Z" fill="#FEFEFE"/>
<path d="M722.907 581.662C739.162 579.814 750.907 565.718 749.141 550.177C747.374 534.636 732.765 523.536 716.51 525.383C700.254 527.231 688.509 541.327 690.276 556.868C692.042 572.409 706.652 583.509 722.907 581.662Z" fill="#F24B57"/>
<path d="M721.558 569.804C730.963 568.735 737.759 560.579 736.737 551.587C735.715 542.595 727.262 536.172 717.856 537.241C708.451 538.31 701.655 546.466 702.677 555.458C703.699 564.451 712.153 570.874 721.558 569.804Z" fill="#FEFEFE"/>
<path d="M720.637 561.7C725.36 561.163 728.773 557.067 728.26 552.55C727.747 548.034 723.501 544.809 718.778 545.346C714.054 545.882 710.641 549.979 711.154 554.495C711.668 559.011 715.913 562.237 720.637 561.7Z" fill="#F24B57"/>
<path d="M821.669 512.859C819.092 510.943 815.276 511.569 812.422 514.126C810.814 510.651 807.556 508.568 804.432 509.309C800.733 510.186 798.628 514.685 799.736 519.357C801.102 524.545 804.197 529.112 808.509 532.303C809.64 532.097 816.865 529.775 821.077 525.028C821.413 524.688 821.727 524.326 822.016 523.946C824.877 520.09 824.722 515.126 821.669 512.859Z" fill="#F24B57"/>
<path d="M745.756 650.757C744.927 648.35 742.15 647.05 739.14 647.447C739.645 644.453 738.446 641.63 736.071 640.716C733.257 639.632 729.867 641.634 728.499 645.185C727.067 649.191 727.046 653.565 728.438 657.584C729.272 657.959 735.036 659.674 739.919 658.456C740.29 658.382 740.656 658.284 741.014 658.163C744.614 656.924 746.737 653.608 745.756 650.757Z" fill="#F24B57"/>
<path d="M458.776 404.786C455.572 405.001 453.073 407.952 452.564 411.748C449.085 410.146 445.255 410.675 443.357 413.265C441.11 416.334 442.432 421.122 446.302 423.958C450.707 427.022 456.025 428.491 461.378 428.122C462.109 427.23 466.097 420.778 466.224 414.431C466.255 413.955 466.255 413.477 466.224 413.001C465.906 408.21 462.571 404.533 458.776 404.786Z" fill="#F24B57"/>
<path d="M420.928 528.223C418.096 529.736 417.033 533.454 418.129 537.124C414.299 537.094 411.025 539.152 410.362 542.293C409.575 546.015 412.745 549.836 417.444 550.829C422.719 551.81 428.171 550.961 432.897 548.422C433.196 547.309 434.179 539.792 431.684 533.951C431.518 533.503 431.322 533.067 431.099 532.645C428.837 528.41 424.283 526.43 420.928 528.223Z" fill="#F24B57"/>
<path d="M449.82 562.406C447.553 562.797 445.992 565.086 445.915 567.83C443.317 566.947 440.627 567.609 439.467 569.596C438.094 571.951 439.39 575.264 442.362 576.993C445.729 578.85 449.628 579.503 453.416 578.843C453.87 578.152 456.233 573.258 455.85 568.726C455.838 568.384 455.803 568.043 455.747 567.706C455.157 564.315 452.505 561.942 449.82 562.406Z" fill="#F24B57"/>
<path d="M544.273 530.351C544.75 529.846 545.191 529.31 545.595 528.746C546.642 527.275 548.146 526.24 549.198 524.717C550.431 522.933 552.023 521.451 552.62 519.291C553.103 517.182 552.88 514.972 551.987 513.001C551.417 511.445 550.441 510.07 549.159 509.018C548.515 508.5 547.756 508.146 546.945 507.985C546.135 507.824 545.297 507.861 544.504 508.093C543.804 508.351 543.166 508.755 542.632 509.277C540.96 510.998 539.965 513.265 539.831 515.66C539.626 517.878 540.481 520.193 540.254 522.327C540.074 524.024 538.722 525.984 538.036 527.574" fill="#F4BE90"/>
<path d="M560.23 641.364L563.101 643.7C554.229 654.204 534.144 656.117 521.374 653.739C520.88 653.653 519.738 653.37 518.109 652.943C507.36 650.192 475.688 641.349 475.513 639.803C478.174 662.209 474.322 684.814 470.499 707.045C469.626 712.142 469.191 725.716 461.963 722.879C461.265 722.602 460.602 722.243 459.99 721.808C456.885 719.67 455.989 715.54 455.353 711.828C450.752 684.489 447.369 656.984 445.205 629.31C444.879 625.189 444.661 620.758 446.792 617.213C451.023 610.227 461.176 610.88 469.259 612.097C490.607 615.282 511.858 614.357 533.237 615.816C539.851 616.26 546.56 615.412 553.109 616.418C559.658 617.424 566.456 620.867 568.881 627.041C571.306 633.215 566.853 641.764 560.23 641.364Z" fill="#43496D"/>
<g style="mix-blend-mode:multiply" opacity="0.356">
<g style="mix-blend-mode:multiply" opacity="0.356">
<path d="M526.622 645.52C524.379 647.701 522.04 649.777 519.607 651.75C519.143 652.123 518.598 652.382 518.015 652.505C517.433 652.629 516.829 652.614 516.254 652.462C507.45 650.156 490.047 645.299 481.105 642.25C480.509 642.048 479.872 641.998 479.251 642.103C478.63 642.208 478.046 642.466 477.549 642.853C477.053 643.24 476.66 643.744 476.407 644.32C476.153 644.897 476.047 645.527 476.097 646.154C477.446 666.475 473.961 686.914 470.499 707.047C470.317 708.109 470.155 709.539 469.945 711.111C469.294 716.004 461.975 715.214 462.37 710.289C462.444 709.364 462.521 708.447 462.596 707.527C464.747 681.86 465.843 656.129 465.883 630.335C465.879 629.822 465.979 629.313 466.177 628.84C466.376 628.366 466.669 627.939 467.039 627.583C467.409 627.227 467.848 626.95 468.328 626.77C468.809 626.589 469.321 626.509 469.834 626.533C473.932 626.794 478 628.093 481.973 629.281C495.97 633.452 510.316 636.327 524.673 639.017C525.363 639.145 526.003 639.462 526.525 639.93C527.047 640.399 527.429 641.003 527.63 641.674C527.832 642.346 527.844 643.06 527.666 643.739C527.489 644.417 527.127 645.034 526.622 645.52Z" fill="#15233A"/>
</g>
</g>
<path d="M587.555 649.123C583.24 655.31 577.922 660.733 571.821 665.168C559.679 674.258 546.602 682.026 532.811 688.339C520.942 693.736 517.249 702.959 514.022 714.906C509.453 731.826 503.748 748.522 498.618 765.284C495.433 775.711 490.056 788.038 479.208 789.143C480.521 767.523 482.795 745.973 485.361 724.469C487.528 706.297 486.372 681.673 496.878 665.944C503.756 655.648 514.203 648.229 524.231 641.269C534.309 634.273 543.758 626.545 553.504 619.335C560.572 614.106 568.062 608.702 576.785 607.602C592.22 605.65 596.27 620.418 594.213 632.912C593.186 638.732 590.915 644.261 587.555 649.123Z" fill="#43496D"/>
<path d="M609.02 569.279C608.901 570.525 608.764 571.79 608.594 573.081C606.399 588.496 602.994 603.715 598.41 618.596C597.554 621.479 596.428 624.275 595.048 626.947C594.802 627.502 594.402 627.975 593.896 628.31C593.212 628.686 592.375 628.389 591.594 628.403C586.991 628.46 582.71 628.443 578.751 628.352C574.279 628.244 570.207 628.054 566.464 627.789C564.941 627.686 563.491 627.567 562.075 627.429C541.651 625.534 532.707 621.382 528.908 618.659C528.784 618.556 528.664 618.482 528.541 618.384C527.64 617.775 526.877 616.985 526.299 616.064C526.299 616.064 529.599 608.654 531.202 605.187C535.585 595.807 539.138 586.18 542.753 576.461C545.029 570.381 547.033 564.201 549.31 558.138C551.468 552.369 556.502 546.739 560.385 541.969C561.52 540.484 562.851 539.158 564.342 538.03C566.715 536.417 569.594 535.81 572.406 535.266C575.337 534.531 578.362 534.244 581.379 534.414C582.416 534.532 583.446 534.714 584.461 534.959C588.3 535.646 592.048 536.773 595.629 538.317C600.733 540.74 604.945 544.707 607.667 549.657C609.718 553.414 609.877 560.728 609.02 569.279Z" fill="#0090C6"/>
<g style="mix-blend-mode:multiply" opacity="0.277">
<g style="mix-blend-mode:multiply" opacity="0.277">
<path d="M609.02 569.279C608.901 570.525 608.764 571.79 608.594 573.081C606.399 588.496 602.994 603.715 598.41 618.596C597.554 621.479 596.428 624.275 595.048 626.947C594.802 627.502 594.402 627.975 593.896 628.31C593.212 628.686 592.375 628.389 591.594 628.403C586.991 628.46 582.71 628.443 578.751 628.352C602.722 599.236 595.69 587.608 609.02 569.279Z" fill="#0090C6"/>
</g>
</g>
<path d="M570.724 554.61C570.98 554.442 571.198 554.223 571.363 553.965C571.528 553.707 571.636 553.417 571.68 553.114C571.724 552.811 571.704 552.503 571.62 552.209C571.535 551.914 571.39 551.642 571.192 551.408C569.401 547.847 576.213 534.437 572.296 535.184C557.95 537.918 545.649 548.149 536.092 558.585C540.263 552.529 542.565 545.449 544.209 538.344C544.966 535.074 545.357 531.743 546.706 528.711C548.03 525.731 545.556 524.857 543.12 523.605C542.668 523.343 542.176 523.157 541.663 523.056C538.857 522.645 534.82 527.621 533.041 529.441C530.44 532.103 528.097 535.004 526.042 538.107C521.977 544.221 519.101 551.045 517.563 558.224C516.257 564.402 514.396 574.598 522.014 577.122C524.389 577.797 526.882 577.952 529.323 577.578C532.296 577.246 535.224 576.592 538.056 575.626C540.179 574.907 542.238 574.007 544.294 573.113L549.313 570.929C551.514 570.033 553.649 568.982 555.702 567.784C558.557 565.9 561.188 563.697 563.544 561.218C565.842 558.96 568.379 556.862 570.724 554.61Z" fill="#0090C6"/>
<path d="M600.652 541.255C600.538 543.904 600.285 546.544 599.893 549.166C599.077 552.371 597.788 555.527 596.749 558.667C595.624 562.061 595.296 565.669 595.794 569.209C596.164 571.403 597.721 573.746 598.604 575.785C599.62 578.135 600.609 580.496 601.573 582.867C603.908 589.839 604.208 597.333 602.437 604.469C599.641 615.151 595.976 625.587 591.481 635.672C590.683 637.238 590.14 638.921 589.872 640.658C589.352 646.092 593.879 645.356 596.968 642.801C602.459 638.257 606.996 632.679 611.25 626.958C616.94 619.482 621.327 611.099 624.224 602.161C625.596 598.204 626.358 594.06 626.484 589.873C626.11 554.099 604.096 543.863 600.652 541.255Z" fill="#0090C6"/>
<path d="M598.423 521.685C596.864 527.534 595.6 533.457 594.637 539.433C593.177 548.425 579.195 546.245 580.652 537.235C580.858 535.924 581.086 534.647 581.328 533.33C581.347 533.16 581.381 532.97 581.418 532.797C581.888 530.374 582.382 527.986 582.949 525.589C582.986 525.416 583.038 525.224 583.075 525.051C583.498 523.194 583.958 521.331 584.457 519.482C585.435 515.77 588.435 512.947 592.538 513.582C596.035 514.139 599.402 517.993 598.423 521.685Z" fill="#F4BE90"/>
<g style="mix-blend-mode:multiply">
<g style="mix-blend-mode:multiply">
<path d="M594.274 523.931C592.859 527.438 590.122 530.249 586.655 531.757C584.958 532.519 583.166 533.049 581.328 533.333C581.347 533.163 581.381 532.973 581.418 532.8C581.888 530.377 582.382 527.989 582.949 525.592C585.41 525.793 587.887 525.518 590.244 524.781C591.54 524.309 592.897 524.023 594.274 523.931Z" fill="#F4BE90"/>
</g>
</g>
<path d="M469.595 727.234C469.776 727.059 469.938 726.865 470.076 726.655C471.036 725.199 470.777 723.295 470.548 721.568C470.191 718.877 469.994 716.166 469.96 713.452C469.943 712.058 470.898 708.277 468.607 708.549L456.199 710.015C456.064 710.02 455.933 710.058 455.816 710.124C455.72 710.218 455.648 710.332 455.604 710.458C455.56 710.585 455.545 710.719 455.561 710.852C455.645 712.161 455.47 713.474 455.047 714.715C454.376 715.948 452.384 716.702 451.134 717.099C449.443 717.57 447.713 717.89 445.965 718.057C441.588 718.632 437.241 719.421 432.897 720.214C431.032 720.385 429.248 721.06 427.737 722.166C425.562 724.097 425.688 726.655 428.093 728.081C431.599 730.161 436.572 730.012 440.498 729.958C444.942 729.897 449.392 729.609 453.83 729.383C456.776 729.233 459.721 729.07 462.666 728.893C464.752 728.754 467.929 728.837 469.595 727.234Z" fill="#252935"/>
<path d="M494.439 788.42C494.621 788.245 494.782 788.051 494.921 787.841C496.373 785.635 495.8 782.173 495.862 779.69C495.941 776.498 496.127 773.31 496.421 770.128C491.312 771.487 485.769 769.841 480.653 771.177C480.66 772.889 480.225 774.574 479.389 776.068C478.592 777.468 477.485 777.801 475.973 778.281C474.282 778.751 472.552 779.072 470.805 779.238C466.427 779.814 462.081 780.603 457.736 781.396C455.87 781.566 454.086 782.241 452.575 783.348C450.4 785.279 450.527 787.837 452.932 789.264C456.438 791.343 461.411 791.194 465.336 791.139C469.781 791.08 474.231 790.792 478.669 790.565C481.614 790.415 484.56 790.251 487.505 790.075C489.597 789.94 492.773 790.023 494.439 788.42Z" fill="#252935"/>
<path d="M595.482 638.671C594.739 637.94 593.74 637.528 592.697 637.522C590.071 637.587 587.354 640.614 585.807 642.49C583.879 644.749 582.533 647.444 581.884 650.341C581.371 652.917 581.025 658.024 583.647 659.661C586.864 661.67 591.628 657.797 593.586 655.478C596.942 651.504 599.21 645.204 596.668 640.239C596.368 639.651 595.966 639.121 595.482 638.671Z" fill="#F4BE90"/>
<path d="M580.851 494.627C582.041 495.915 581.837 497.723 581.861 499.328C581.984 500.955 582.002 502.587 581.914 504.216C581.534 507.617 580.153 510.83 577.945 513.445C576.82 514.763 575.093 515.994 573.477 515.369C572.02 514.805 571.479 513.044 571.271 511.495C570.648 506.791 571.365 502.006 573.339 497.69C574.215 495.785 575.6 493.805 577.671 493.502C578.252 493.422 578.844 493.483 579.397 493.679C579.95 493.874 580.449 494.199 580.851 494.627Z" fill="#563624"/>
<path d="M585.283 495.509C579.504 495.779 575.093 500.971 573.148 506.503C571.739 510.263 571.422 514.345 572.234 518.277C572.65 520.244 573.472 522.102 574.648 523.732C575.824 525.363 577.327 526.729 579.062 527.745C582.88 529.806 587.52 529.564 591.527 528.139C593.928 527.297 596.14 525.989 598.035 524.291C598.746 523.646 599.469 523.014 600.205 522.397C600.697 521.986 601.078 521.24 601.638 520.972C602.004 520.828 602.385 520.724 602.774 520.664C603.768 520.435 604.692 519.973 605.471 519.315C606.077 518.837 606.531 518.192 606.776 517.46C606.898 516.972 606.947 516.469 606.922 515.967C606.794 514.284 606.772 512.595 606.856 510.91C607.094 508.817 607.1 506.418 605.63 504.893C604.48 503.699 602.819 503.419 601.463 502.578C599.97 501.653 599.535 499.847 598.323 498.548C595.611 495.64 591.013 494.28 587.725 496.312" fill="#F4BE90"/>
<path d="M593.124 487.275C592.829 485.776 592.201 484.362 591.286 483.138C590.372 481.914 589.194 480.91 587.84 480.201C586.249 479.419 584.469 479.101 582.705 479.285C580.941 479.468 579.265 480.145 577.868 481.238C571.969 486.08 575.422 495.025 581.301 498.138C586.659 500.976 596.725 497.39 600.065 503.995C601.834 507.488 599.183 511.712 599.851 515.573C600.936 515.355 601.532 514.226 602.093 513.272C602.654 512.317 603.607 511.319 604.679 511.59C605.08 511.761 605.431 512.033 605.697 512.379C605.963 512.725 606.135 513.134 606.198 513.565C606.54 514.674 606.565 515.857 606.269 516.98C606.114 517.537 605.822 518.047 605.42 518.464C605.018 518.88 604.519 519.189 603.967 519.363C603.393 519.513 602.786 519.477 602.2 519.569C601.341 519.765 600.542 520.166 599.872 520.739C599.202 521.312 598.681 522.038 598.354 522.857C597.612 524.492 596.538 527.702 599.083 526.018C600.454 525.051 601.726 523.95 602.879 522.73C606.339 519.347 608.823 515.093 610.071 510.417C610.94 506.943 610.657 503.281 609.266 499.981C608.892 498.967 608.269 498.064 607.454 497.356C607.042 497.008 606.544 496.778 606.013 496.69C605.481 496.602 604.935 496.659 604.433 496.856C604.251 495.068 603.854 493.309 603.251 491.616C602.635 489.909 601.424 488.482 599.84 487.597C598.768 487.087 597.564 486.922 596.394 487.123C595.224 487.324 594.145 487.882 593.305 488.721C593.281 488.235 593.221 487.752 593.124 487.275Z" fill="#563624"/>
<path d="M546.802 504.889C546.555 505.216 546.385 505.594 546.303 505.996C544.881 511.107 543.858 516.32 543.244 521.59C543.083 522.976 543.039 524.605 544.108 525.503C544.585 525.84 545.152 526.026 545.736 526.035C546.32 526.045 546.893 525.878 547.38 525.557C548.343 524.895 549.132 524.01 549.678 522.977C553.039 517.478 554.684 511.084 555.511 504.688" fill="#F24B57"/>
<path d="M569.633 501.856C569.137 505.533 567.282 509.084 563.739 510.083C562.225 510.452 560.649 510.484 559.121 510.179C555.908 509.649 552.504 508.263 549.76 507.773C547.579 507.366 545.373 507.099 543.157 506.974C540.901 506.846 538.639 506.841 536.382 506.96C527.443 507.417 518.671 509.403 509.803 510.523L524.701 460.331C529.809 467.673 535.703 474.437 542.277 480.501C544.114 482.109 546.053 483.597 548.083 484.954C549.356 485.817 550.681 486.637 552.003 487.439C555.394 489.48 558.536 491.548 562.323 492.853C562.939 493.059 563.583 493.264 564.206 493.498C565.413 493.882 566.535 494.495 567.509 495.305C568.364 496.146 569.003 497.18 569.373 498.32C569.742 499.461 569.832 500.674 569.633 501.856Z" fill="#F54B56"/>
<path d="M529.164 477.862C529.003 485.466 526.959 492.912 523.216 499.533C518.798 507.136 512.568 511.564 506.754 510.341C498.09 508.499 493.655 494.847 496.854 479.802C500.032 464.784 509.632 454.092 518.268 455.914C525.216 457.405 529.436 466.517 529.164 477.862Z" fill="#505982"/>
<path d="M526.742 478.623C526.73 479.017 526.721 479.428 526.691 479.823C526.69 480.005 526.68 480.187 526.661 480.368C526.551 482.255 526.296 484.131 525.898 485.979C525.392 488.389 524.66 490.746 523.713 493.019C523.536 493.43 523.358 493.841 523.18 494.236C522.73 495.242 522.225 496.222 521.665 497.171C517.872 503.686 512.556 507.48 507.565 506.424C500.167 504.858 496.373 493.159 499.106 480.271C501.825 467.428 510.042 458.278 517.421 459.825C523.371 461.111 526.981 468.911 526.742 478.623Z" fill="#252935"/>
<path d="M526.516 481.897C526.516 482.046 526.503 482.182 526.491 482.334C526.402 483.852 526.196 485.36 525.875 486.845C525.468 488.783 524.88 490.678 524.118 492.506C523.975 492.838 523.833 493.169 523.689 493.485C522.53 493.588 520.259 493.665 519.144 493.762C518.905 493.774 518.652 493.788 518.414 493.815C517.445 493.865 514.559 493.953 514.289 493.954C514.334 493.954 514.553 493.894 514.609 493.332C514.656 492.952 514.734 492.583 514.814 492.214C515.122 490.529 515.482 488.852 515.863 487.188C516.626 483.86 517.493 480.536 517.978 477.15C518.191 476.781 518.436 476.423 518.632 476.04C519.091 476.244 524.939 480.691 526.516 481.897Z" fill="url(#paint5_linear_2_3)"/>
<path d="M520.779 482.758C520.725 485.353 520.028 487.895 518.751 490.155C517.243 492.751 515.118 494.265 513.134 493.845C510.178 493.216 508.664 488.555 509.755 483.417C510.846 478.28 514.114 474.639 517.061 475.262C519.436 475.773 520.874 478.884 520.779 482.758Z" fill="#FFB200"/>
<path d="M569.633 501.856C569.136 505.533 567.282 509.084 563.738 510.083C562.224 510.451 560.649 510.484 559.121 510.179C562.424 506.725 564.793 500.484 564.204 493.498C565.411 493.882 566.533 494.495 567.507 495.305C568.362 496.145 569.002 497.18 569.372 498.32C569.742 499.461 569.832 500.673 569.633 501.856Z" fill="#252935"/>
<g style="mix-blend-mode:multiply" opacity="0.283">
<g style="mix-blend-mode:multiply" opacity="0.283">
<path d="M651.667 430.063C650.396 439.899 648.609 449.637 646.53 459.33C644.452 468.988 641.871 478.524 638.953 487.96C637.309 493.289 635.553 498.586 633.683 503.85C633.425 504.583 634.551 504.861 634.828 504.166C638.517 494.911 641.646 485.441 644.197 475.809C646.775 466.185 648.837 456.431 650.373 446.587C651.224 441.1 651.914 435.594 652.443 430.068C652.491 429.568 651.735 429.587 651.672 430.068L651.667 430.063Z" fill="#FF7900"/>
</g>
</g>
<g style="mix-blend-mode:multiply" opacity="0.283">
<g style="mix-blend-mode:multiply" opacity="0.283">
<path d="M651.802 477.505C650.045 487.285 647.781 496.942 645.22 506.538C642.669 516.101 639.617 525.516 636.234 534.815C634.325 540.058 632.31 545.263 630.186 550.432C629.934 551.048 630.992 551.502 631.272 550.89C635.41 541.832 639.002 532.534 642.029 523.047C645.063 513.626 647.594 504.051 649.612 494.362C650.755 488.84 651.732 483.289 652.545 477.707C652.615 477.227 651.891 477.009 651.802 477.501V477.505Z" fill="#FF7900"/>
</g>
</g>
<g style="mix-blend-mode:multiply" opacity="0.283">
<g style="mix-blend-mode:multiply" opacity="0.283">
<path d="M637.009 453.478C636.829 454.776 636.474 456.024 636.23 457.31C635.985 458.596 635.716 459.879 635.464 461.158C634.972 463.692 634.422 466.212 633.815 468.718C632.589 473.78 631.208 478.799 629.953 483.852C629.919 483.979 629.937 484.114 630.003 484.228C630.068 484.341 630.176 484.425 630.302 484.46C630.429 484.495 630.564 484.478 630.678 484.414C630.793 484.35 630.877 484.243 630.914 484.117C632.776 479.201 634.201 474.131 635.173 468.965C635.682 466.387 636.131 463.796 636.519 461.195C636.706 459.938 636.844 458.675 636.981 457.412C637.121 456.111 637.114 454.812 637.261 453.513C637.278 453.37 637.029 453.335 637.009 453.478Z" fill="#FF7900"/>
</g>
</g>
<g style="mix-blend-mode:multiply" opacity="0.283">
<g style="mix-blend-mode:multiply" opacity="0.283">
<path d="M525.639 757.032C531.216 752.952 536.743 748.746 542 744.259C547.226 739.799 552.31 735.179 557.251 730.398C567.127 720.838 576.346 710.621 584.844 699.818C589.642 693.728 594.226 687.451 598.395 680.914C598.787 680.297 597.853 679.794 597.44 680.355C589.272 691.42 580.876 702.295 571.676 712.53C562.583 722.73 552.916 732.404 542.721 741.504C536.968 746.596 531.15 751.596 525.114 756.349C524.731 756.651 525.242 757.321 525.639 757.03V757.032Z" fill="#FF7900"/>
</g>
</g>
<g style="mix-blend-mode:multiply" opacity="0.283">
<g style="mix-blend-mode:multiply" opacity="0.283">
<path d="M592.816 714.05C588.641 722.287 583.007 729.7 576.187 735.928C575.426 736.628 576.54 737.703 577.311 737.051C582.929 732.313 587.582 726.538 591.016 720.041C591.983 718.204 592.861 716.324 593.653 714.403C593.85 713.925 593.046 713.589 592.816 714.05Z" fill="#FF7900"/>
</g>
</g>
<path d="M580.082 682.142C571.999 693.894 562.673 704.741 552.266 714.495C549.361 717.188 546.299 719.709 543.452 722.463C543.067 722.836 543.574 723.531 544.036 723.219C546.957 721.168 549.721 718.901 552.304 716.438C554.952 714.011 557.523 711.504 560.018 708.916C564.982 703.748 569.609 698.267 573.869 692.505C576.278 689.263 578.479 685.884 580.582 682.436C580.778 682.115 580.292 681.843 580.082 682.144V682.142Z" fill="#FF7900"/>
<g style="mix-blend-mode:screen" opacity="0.302">
<g style="mix-blend-mode:screen" opacity="0.302">
<path d="M614.627 415.269C611.508 416.668 608.026 419.078 604.866 420.048C601.927 420.949 601.497 418.61 603.161 416.563C605.474 413.716 608.079 410.998 610.442 408.162C632.302 381.923 652.905 354.703 672.253 326.503C673.445 330.296 669.916 368.385 667.101 383.217C666.759 385.013 620.673 412.558 614.627 415.269Z" fill="#FFB200"/>
</g>
</g>
<g style="mix-blend-mode:screen" opacity="0.134">
<g style="mix-blend-mode:screen" opacity="0.134">
<path d="M586.947 574.383C585.42 594.109 573.963 611.518 562.073 627.425C541.649 625.53 532.705 621.378 528.906 618.655L528.918 618.598C537.035 605.584 545.156 592.531 551.875 578.742C555.053 572.223 558.092 565.309 563.711 560.733C569.33 556.157 578.486 554.948 583.452 560.219C586.889 563.865 587.349 569.391 586.947 574.383Z" fill="#FFB200"/>
</g>
</g>
<path d="M664.417 619.019C671.592 610.666 678.821 602.362 685.942 593.963L707.313 568.757C711.345 564.003 715.417 559.268 719.334 554.415C719.671 553.998 719.102 553.398 718.733 553.814C715.079 557.931 711.568 562.18 708 566.372C704.433 570.564 700.891 574.789 697.339 579C690.233 587.425 683.138 595.857 676.053 604.295C672.046 609.081 668.106 613.917 664.111 618.712C663.934 618.924 664.235 619.226 664.419 619.021L664.417 619.019Z" fill="#2C2C2D"/>
<path d="M659.364 620.75C661.078 620.339 662.777 619.861 664.452 619.311L663.836 618.841L663.857 621.468C663.857 621.905 663.857 622.343 663.869 622.781C663.858 623.218 663.907 623.654 664.016 624.077C664.035 624.141 664.075 624.198 664.13 624.238C664.184 624.278 664.25 624.3 664.317 624.3C664.385 624.3 664.45 624.278 664.505 624.238C664.559 624.198 664.599 624.141 664.619 624.077C664.729 623.654 664.779 623.218 664.769 622.781C664.782 622.343 664.778 621.905 664.783 621.468L664.812 618.841C664.811 618.766 664.793 618.693 664.759 618.626C664.726 618.559 664.677 618.501 664.618 618.456C664.559 618.411 664.49 618.379 664.417 618.364C664.343 618.35 664.268 618.352 664.196 618.37C662.48 618.898 660.813 619.571 659.212 620.382C659.007 620.485 659.152 620.8 659.366 620.748L659.364 620.75Z" fill="#2C2C2D"/>
<path d="M688.262 672.969C683.913 684.232 678.964 695.274 673.561 706.068C668.184 716.808 662.309 727.277 655.936 737.477C649.572 747.662 642.743 757.537 635.448 767.101C628.128 776.696 620.365 785.931 612.157 794.805C603.996 803.627 595.448 812.055 586.513 820.091C585.399 821.098 584.28 822.097 583.154 823.089C582.949 823.272 583.249 823.568 583.455 823.391C592.602 815.477 601.346 807.11 609.655 798.321C617.977 789.546 625.854 780.348 633.286 770.813C640.661 761.355 647.581 751.567 654.047 741.449C660.534 731.292 666.532 720.844 672.041 710.105C677.547 699.41 682.504 688.442 686.895 677.244C687.44 675.845 687.99 674.449 688.527 673.048C688.592 672.878 688.322 672.805 688.256 672.973L688.262 672.969Z" fill="#FF7900"/>
<path d="M681.428 718.946C675.661 731.147 668.864 742.834 661.11 753.879C658.922 757.009 656.667 760.091 654.343 763.126C654.241 763.254 654.469 763.434 654.57 763.301C662.911 752.67 670.256 741.295 676.511 729.318C678.281 725.932 679.973 722.507 681.587 719.044C681.637 718.941 681.478 718.838 681.428 718.951V718.946Z" fill="#FF7900"/>
<path d="M479.826 808.457C470.791 816.113 461.901 823.938 453.157 831.933C444.458 839.91 435.911 848.048 427.517 856.347C422.783 861.027 418.097 865.756 413.517 870.587C413.389 870.721 413.59 870.924 413.722 870.792C422.059 862.38 430.411 853.987 438.968 845.796C447.493 837.635 456.164 829.631 464.981 821.783C469.951 817.356 474.967 812.983 480.031 808.662C480.173 808.541 479.968 808.337 479.826 808.457Z" fill="#FF7900"/>
<path d="M449.759 820.109C440.988 827.466 432.657 835.331 424.809 843.664C422.593 846.017 420.425 848.412 418.305 850.849C418.176 850.996 418.389 851.211 418.521 851.065C426.118 842.503 434.174 834.359 442.653 826.669C445.05 824.503 447.482 822.377 449.948 820.291C450.074 820.188 449.892 820.003 449.766 820.109H449.759Z" fill="#FF7900"/>
<path d="M445.747 808.071C434.846 817.029 424.124 826.197 413.582 835.577C403.04 844.957 392.701 854.552 382.566 864.364C376.877 869.858 371.26 875.426 365.716 881.067C365.69 881.097 365.676 881.136 365.677 881.176C365.678 881.216 365.694 881.254 365.723 881.282C365.751 881.311 365.789 881.327 365.829 881.328C365.869 881.329 365.908 881.315 365.938 881.289C375.903 871.306 386.044 861.502 396.361 851.875C406.678 842.249 417.167 832.82 427.83 823.59C433.81 818.416 439.839 813.3 445.918 808.242C446.038 808.139 445.867 807.974 445.748 808.071H445.747Z" fill="#FF7900"/>
<path d="M546.095 520.238C547.088 519.703 547.949 518.954 548.615 518.044C549.28 517.134 549.734 516.086 549.943 514.978C550.516 512.584 550.173 510.252 547.805 509.122C547.034 508.697 546.159 508.495 545.279 508.54C543.747 508.716 542.639 510.065 541.848 511.388C541.162 512.506 540.631 513.712 540.272 514.973C539.999 515.983 539.586 517.657 540.142 518.636C541.233 520.555 544.226 521.092 546.095 520.238Z" fill="#F4BE90"/>
<path d="M481.089 421.902L481.323 422.358" stroke="#43496D" stroke-linecap="round" stroke-linejoin="round"/>
<path d="M483.631 426.779C489.793 438.379 496.574 449.64 503.947 460.511" stroke="#43496D" stroke-linecap="round" stroke-linejoin="round" stroke-dasharray="0.97 4.85"/>
<path d="M505.353 462.57L505.645 462.992" stroke="#43496D" stroke-linecap="round" stroke-linejoin="round"/>
<path d="M418.288 444.208L418.705 444.508" stroke="#43496D" stroke-linecap="round" stroke-linejoin="round"/>
<path d="M422.85 447.425C443.884 461.934 466.844 473.429 491.063 481.576" stroke="#43496D" stroke-linecap="round" stroke-linejoin="round" stroke-dasharray="0.99 4.93"/>
<path d="M493.469 482.372L493.958 482.532" stroke="#43496D" stroke-linecap="round" stroke-linejoin="round"/>
<path d="M392.785 475.633C392.944 475.69 393.106 475.745 393.267 475.801" stroke="#43496D" stroke-linecap="round" stroke-linejoin="round"/>
<path d="M398.145 477.363C424.577 485.254 466.129 489.264 492.905 490.144" stroke="#43496D" stroke-linecap="round" stroke-linejoin="round" stroke-dasharray="1 4.99"/>
<path d="M495.467 490.22L495.98 490.232" stroke="#43496D" stroke-linecap="round" stroke-linejoin="round"/>
<path d="M438.473 506.332L438.987 506.301" stroke="#43496D" stroke-linecap="round" stroke-linejoin="round"/>
<path d="M444.033 505.997C459.342 505.052 474.691 503.822 489.53 500.11" stroke="#43496D" stroke-linecap="round" stroke-linejoin="round" stroke-dasharray="0.98 4.91"/>
<path d="M491.968 499.476C492.133 499.431 492.299 499.387 492.463 499.341" stroke="#43496D" stroke-linecap="round" stroke-linejoin="round"/>
<path d="M483.998 562.988C473.827 557.601 470.101 546.889 474.363 536.263C476.11 531.899 469.062 529.965 467.328 534.291C464.694 540.688 464.568 547.843 466.973 554.33C469.378 560.817 474.139 566.16 480.307 569.294C484.447 571.487 488.169 565.197 483.998 562.988Z" fill="#FFB200"/>
<path d="M491.06 552.558C487.537 550.764 483.995 545.127 485.783 541.142C487.688 536.9 481.406 533.154 479.477 537.45C476.087 545.012 479.945 555.084 487.368 558.863C491.538 560.987 495.266 554.699 491.06 552.558Z" fill="#FFB200"/>
<path d="M495.816 547.028C499.914 544.724 496.341 538.352 492.236 540.658C488.132 542.964 491.712 549.335 495.816 547.028Z" fill="#FFB200"/>
</g>
<defs>
<linearGradient id="paint0_linear_2_3" x1="512.594" y1="1073.01" x2="1246.85" y2="134.93" gradientUnits="userSpaceOnUse">
<stop stop-color="#D5005B" stop-opacity="0.97"/>
<stop offset="0.024" stop-color="#C8005E" stop-opacity="0.97"/>
<stop offset="0.116" stop-color="#9D0068" stop-opacity="0.97"/>
<stop offset="0.21" stop-color="#7A0070" stop-opacity="0.97"/>
<stop offset="0.305" stop-color="#5E0077" stop-opacity="0.97"/>
<stop offset="0.401" stop-color="#4B007B" stop-opacity="0.97"/>
<stop offset="0.5" stop-color="#3F007E" stop-opacity="0.97"/>
<stop offset="0.604" stop-color="#3B007F" stop-opacity="0.97"/>
</linearGradient>
<linearGradient id="paint1_linear_2_3" x1="441266" y1="98832.7" x2="469812" y2="214611" gradientUnits="userSpaceOnUse">
<stop stop-color="#D5005B" stop-opacity="0.97"/>
<stop offset="0.024" stop-color="#C8005E" stop-opacity="0.97"/>
<stop offset="0.116" stop-color="#9D0068" stop-opacity="0.97"/>
<stop offset="0.21" stop-color="#7A0070" stop-opacity="0.97"/>
<stop offset="0.305" stop-color="#5E0077" stop-opacity="0.97"/>
<stop offset="0.401" stop-color="#4B007B" stop-opacity="0.97"/>
<stop offset="0.5" stop-color="#3F007E" stop-opacity="0.97"/>
<stop offset="0.604" stop-color="#3B007F" stop-opacity="0.97"/>
</linearGradient>
<linearGradient id="paint2_linear_2_3" x1="394495" y1="82581.8" x2="542753" y2="380081" gradientUnits="userSpaceOnUse">
<stop stop-color="#D5005B" stop-opacity="0.97"/>
<stop offset="0.024" stop-color="#C8005E" stop-opacity="0.97"/>
<stop offset="0.116" stop-color="#9D0068" stop-opacity="0.97"/>
<stop offset="0.21" stop-color="#7A0070" stop-opacity="0.97"/>
<stop offset="0.305" stop-color="#5E0077" stop-opacity="0.97"/>
<stop offset="0.401" stop-color="#4B007B" stop-opacity="0.97"/>
<stop offset="0.5" stop-color="#3F007E" stop-opacity="0.97"/>
<stop offset="0.604" stop-color="#3B007F" stop-opacity="0.97"/>
</linearGradient>
<linearGradient id="paint3_linear_2_3" x1="688.433" y1="569.333" x2="825.906" y2="1231.96" gradientUnits="userSpaceOnUse">
<stop stop-color="#D5005B" stop-opacity="0.97"/>
<stop offset="0.099" stop-color="#D0005C" stop-opacity="0.94"/>
<stop offset="0.238" stop-color="#C3005F" stop-opacity="0.855"/>
<stop offset="0.399" stop-color="#AC0064" stop-opacity="0.715"/>
<stop offset="0.579" stop-color="#8E006C" stop-opacity="0.52"/>
<stop offset="0.77" stop-color="#660075" stop-opacity="0.274"/>
<stop offset="0.956" stop-color="#3B007F" stop-opacity="0"/>
</linearGradient>
<linearGradient id="paint4_linear_2_3" x1="100298" y1="20751" x2="101251" y2="29602.3" gradientUnits="userSpaceOnUse">
<stop stop-color="#D5005B" stop-opacity="0.97"/>
<stop offset="0.024" stop-color="#C8005E" stop-opacity="0.97"/>
<stop offset="0.116" stop-color="#9D0068" stop-opacity="0.97"/>
<stop offset="0.21" stop-color="#7A0070" stop-opacity="0.97"/>
<stop offset="0.305" stop-color="#5E0077" stop-opacity="0.97"/>
<stop offset="0.401" stop-color="#4B007B" stop-opacity="0.97"/>
<stop offset="0.5" stop-color="#3F007E" stop-opacity="0.97"/>
<stop offset="0.604" stop-color="#3B007F" stop-opacity="0.97"/>
</linearGradient>
<linearGradient id="paint5_linear_2_3" x1="518.429" y1="485.538" x2="528.766" y2="488.41" gradientUnits="userSpaceOnUse">
<stop stop-color="#FF9100" stop-opacity="0.97"/>
<stop offset="0.215" stop-color="#C2740F" stop-opacity="0.97"/>
<stop offset="0.53" stop-color="#6E4C23" stop-opacity="0.97"/>
<stop offset="0.754" stop-color="#393330" stop-opacity="0.97"/>
<stop offset="0.864" stop-color="#252935" stop-opacity="0.97"/>
</linearGradient>
<clipPath id="clip0_2_3">
<rect width="839" height="1024" fill="white"/>
</clipPath>
</defs>
</svg>
